<?xml version="1.0" encoding="UTF-8" standalone="no"?>
<!-- Created with Inkscape (http://www.inkscape.org/) -->

<svg
   xmlns:dc="http://purl.org/dc/elements/1.1/"
   xmlns:cc="http://creativecommons.org/ns#"
   xmlns:rdf="http://www.w3.org/1999/02/22-rdf-syntax-ns#"
   xmlns:svg="http://www.w3.org/2000/svg"
   xmlns="http://www.w3.org/2000/svg"
   xmlns:sodipodi="http://sodipodi.sourceforge.net/DTD/sodipodi-0.dtd"
   xmlns:inkscape="http://www.inkscape.org/namespaces/inkscape"
   width="744.09448819"
   height="1052.3622047"
   id="svg2"
   version="1.1"
   inkscape:version="0.47 r22583"
   sodipodi:docname="balloon.svg"
   enable-background="new">
  <defs
     id="defs4">
    <inkscape:perspective
       sodipodi:type="inkscape:persp3d"
       inkscape:vp_x="0 : 526.18109 : 1"
       inkscape:vp_y="0 : 1000 : 0"
       inkscape:vp_z="744.09448 : 526.18109 : 1"
       inkscape:persp3d-origin="372.04724 : 350.78739 : 1"
       id="perspective10" />
    <filter
       inkscape:collect="always"
       id="filter3653">
      <feBlend
         inkscape:collect="always"
         mode="screen"
         in2="BackgroundImage"
         id="feBlend3655" />
    </filter>
  </defs>
  <sodipodi:namedview
     id="base"
     pagecolor="#ffffff"
     bordercolor="#666666"
     borderopacity="1.0"
     inkscape:pageopacity="0.0"
     inkscape:pageshadow="2"
     inkscape:zoom="1"
     inkscape:cx="248.68264"
     inkscape:cy="235.25116"
     inkscape:document-units="px"
     inkscape:current-layer="layer1"
     showgrid="false"
     inkscape:window-width="936"
     inkscape:window-height="832"
     inkscape:window-x="0"
     inkscape:window-y="0"
     inkscape:window-maximized="1"
     inkscape:snap-grids="true"
     inkscape:snap-page="false"
     showguides="false"
     inkscape:snap-global="false">
    <inkscape:grid
       type="xygrid"
       id="grid3595" />
  </sodipodi:namedview>
  <metadata
     id="metadata7">
    <rdf:RDF>
      <cc:Work
         rdf:about="">
        <dc:format>image/svg+xml</dc:format>
        <dc:type
           rdf:resource="http://purl.org/dc/dcmitype/StillImage" />
        <dc:title />
      </cc:Work>
    </rdf:RDF>
  </metadata>
  <g
     inkscape:groupmode="layer"
     id="layer2"
     inkscape:label="Grid"
     style="display:none">
    <rect
       style="fill:none;stroke:#000000;stroke-width:1;stroke-linecap:butt;stroke-linejoin:miter;stroke-miterlimit:4;stroke-opacity:1;stroke-dasharray:none;stroke-dashoffset:0"
       id="rect3597"
       width="64"
       height="75"
       x="0.5"
       y="824.86218"
       ry="0" />
    <rect
       style="fill:none;stroke:#000000;stroke-width:1;stroke-linecap:butt;stroke-linejoin:miter;stroke-miterlimit:4;stroke-opacity:1;stroke-dasharray:none;stroke-dashoffset:0"
       id="rect3599"
       width="64"
       height="75"
       x="65.500008"
       y="824.86218"
       ry="0" />
    <rect
       style="fill:none;stroke:#000000;stroke-width:1;stroke-linecap:butt;stroke-linejoin:miter;stroke-miterlimit:4;stroke-opacity:1;stroke-dasharray:none;stroke-dashoffset:0"
       id="rect3601"
       width="64"
       height="75"
       x="130.49998"
       y="824.86218"
       ry="0" />
    <rect
       style="fill:none;stroke:#000000;stroke-width:1;stroke-linecap:butt;stroke-linejoin:miter;stroke-miterlimit:4;stroke-opacity:1;stroke-dasharray:none;stroke-dashoffset:0"
       id="rect3603"
       width="64"
       height="75"
       x="195.49998"
       y="900.86218"
       ry="0" />
    <rect
       style="fill:none;stroke:#000000;stroke-width:1;stroke-linecap:butt;stroke-linejoin:miter;stroke-miterlimit:4;stroke-opacity:1;stroke-dasharray:none;stroke-dashoffset:0"
       id="rect3605"
       width="64"
       height="75"
       x="0.5"
       y="900.86218"
       ry="0" />
    <rect
       style="fill:none;stroke:#000000;stroke-width:1;stroke-linecap:butt;stroke-linejoin:miter;stroke-miterlimit:4;stroke-opacity:1;stroke-dasharray:none;stroke-dashoffset:0"
       id="rect3607"
       width="64"
       height="75"
       x="0.5"
       y="976.86218"
       ry="0" />
    <rect
       style="fill:none;stroke:#000000;stroke-width:1;stroke-linecap:butt;stroke-linejoin:miter;stroke-miterlimit:4;stroke-opacity:1;stroke-dasharray:none;stroke-dashoffset:0"
       id="rect3609"
       width="64"
       height="75"
       x="0.5"
       y="748.86218"
       ry="0" />
    <rect
       style="fill:none;stroke:#000000;stroke-width:1;stroke-linecap:butt;stroke-linejoin:miter;stroke-miterlimit:4;stroke-opacity:1;stroke-dasharray:none;stroke-dashoffset:0"
       id="rect3611"
       width="64"
       height="75"
       x="65.500008"
       y="748.86218"
       ry="0" />
    <rect
       style="fill:none;stroke:#000000;stroke-width:1;stroke-linecap:butt;stroke-linejoin:miter;stroke-miterlimit:4;stroke-opacity:1;stroke-dasharray:none;stroke-dashoffset:0"
       id="rect3613"
       width="64"
       height="75"
       x="130.49998"
       y="748.86218"
       ry="0" />
    <rect
       style="fill:none;stroke:#000000;stroke-width:1;stroke-linecap:butt;stroke-linejoin:miter;stroke-miterlimit:4;stroke-opacity:1;stroke-dasharray:none;stroke-dashoffset:0"
       id="rect3615"
       width="64"
       height="75"
       x="195.49998"
       y="748.86218"
       ry="0" />
    <rect
       style="fill:none;stroke:#000000;stroke-width:1;stroke-linecap:butt;stroke-linejoin:miter;stroke-miterlimit:4;stroke-opacity:1;stroke-dasharray:none;stroke-dashoffset:0"
       id="rect3617"
       width="64"
       height="75"
       x="195.49998"
       y="824.86218"
       ry="0" />
    <rect
       style="fill:none;stroke:#000000;stroke-width:1;stroke-linecap:butt;stroke-linejoin:miter;stroke-miterlimit:4;stroke-opacity:1;stroke-dasharray:none;stroke-dashoffset:0"
       id="rect3619"
       width="64"
       height="75"
       x="130.49998"
       y="900.86218"
       ry="0" />
    <rect
       style="fill:none;stroke:#000000;stroke-width:1;stroke-linecap:butt;stroke-linejoin:miter;stroke-miterlimit:4;stroke-opacity:1;stroke-dasharray:none;stroke-dashoffset:0"
       id="rect3621"
       width="64"
       height="75"
       x="65.500008"
       y="900.86218"
       ry="0" />
    <rect
       style="fill:none;stroke:#000000;stroke-width:1;stroke-linecap:butt;stroke-linejoin:miter;stroke-miterlimit:4;stroke-opacity:1;stroke-dasharray:none;stroke-dashoffset:0"
       id="rect3623"
       width="64"
       height="75"
       x="65.500008"
       y="976.86218"
       ry="0" />
  </g>
  <g
     inkscape:label="Layer 1"
     inkscape:groupmode="layer"
     id="layer1"
     style="display:inline;filter:url(#filter3653)">
    <path
       style="fill:none;stroke:#000104;stroke-width:0.52499998;stroke-linecap:butt;stroke-linejoin:miter;stroke-miterlimit:4;stroke-opacity:1;stroke-dasharray:none;stroke-dashoffset:0"
       d="m 31.94764,753.37912 c -16.42417,0 -29.73746,13.87964 -29.73746,30.99726 0,14.45127 10.82544,24.75703 22.32507,30.03038 1.38021,0.63294 4.08099,1.33403 5.6545,1.41053 l -3.18929,4.26916 2.24979,-1.58688 1.57739,1.41147 1.59295,-1.20999 2.63263,1.74945 -3.32741,-4.60396 c 1.42904,-0.0619 6.00882,-0.75969 7.25334,-1.35183 8.67787,-4.12929 22.70594,-15.52521 22.70594,-30.11833 0,-17.11762 -13.31329,-30.99726 -29.73745,-30.99726 z"
       id="path3625"
       sodipodi:nodetypes="csscccccccssc"
       inkscape:export-filename="D:\Repos\ruby\gubby\gubby_gosu\test\asset\bloon.png"
       inkscape:export-xdpi="90"
       inkscape:export-ydpi="90" />
    <path
       style="fill:none;stroke:#000104;stroke-width:0.52499998;stroke-linecap:butt;stroke-linejoin:miter;stroke-miterlimit:4;stroke-opacity:1;stroke-dasharray:none;stroke-dashoffset:0"
       d="m 96.94755,753.37912 c -16.42417,0 -29.73746,13.87964 -29.73746,30.99726 0,14.45127 10.82544,24.75703 22.32507,30.03038 1.38021,0.63294 4.08099,1.33403 5.6545,1.41053 l -3.18929,4.26916 2.24979,-1.58688 1.57739,1.41147 1.59295,-1.20999 2.63263,1.74945 -3.32741,-4.60396 c 1.42904,-0.0619 6.00882,-0.75969 7.25334,-1.35183 8.67787,-4.12929 22.70594,-15.52521 22.70594,-30.11833 0,-17.11762 -13.31329,-30.99726 -29.73745,-30.99726 z"
       id="path3627"
       sodipodi:nodetypes="csscccccccssc"
       inkscape:export-filename="D:\Repos\ruby\gubby\gubby_gosu\test\asset\bloon.png"
       inkscape:export-xdpi="90"
       inkscape:export-ydpi="90" />
    <path
       style="fill:none;stroke:#000104;stroke-width:0.52499998;stroke-linecap:butt;stroke-linejoin:miter;stroke-miterlimit:4;stroke-opacity:1;stroke-dasharray:none;stroke-dashoffset:0"
       d="m 161.94746,753.37912 c -16.42417,0 -29.73746,13.87964 -29.73746,30.99726 0,14.45127 10.82544,24.75703 22.32507,30.03038 1.38021,0.63294 4.08099,1.33403 5.6545,1.41053 l -3.18929,4.26916 2.24979,-1.58688 1.57739,1.41147 1.59295,-1.20999 2.63263,1.74945 -3.32741,-4.60396 c 1.42904,-0.0619 6.00882,-0.75969 7.25334,-1.35183 8.67787,-4.12929 22.70594,-15.52521 22.70594,-30.11833 0,-17.11762 -13.31329,-30.99726 -29.73745,-30.99726 z"
       id="path3629"
       sodipodi:nodetypes="csscccccccssc"
       inkscape:export-filename="D:\Repos\ruby\gubby\gubby_gosu\test\asset\bloon.png"
       inkscape:export-xdpi="90"
       inkscape:export-ydpi="90" />
    <path
       style="fill:none;stroke:#000104;stroke-width:0.52499998;stroke-linecap:butt;stroke-linejoin:miter;stroke-miterlimit:4;stroke-opacity:1;stroke-dasharray:none;stroke-dashoffset:0"
       d="m 161.94746,828.9755 c -16.42417,0 -29.73746,13.87964 -29.73746,30.99726 0,14.45127 10.82544,24.75703 22.32507,30.03038 1.38021,0.63294 4.08099,1.33403 5.6545,1.41053 l -3.18929,4.26916 2.24979,-1.58688 1.57739,1.41147 1.59295,-1.20999 2.63263,1.74945 -3.32741,-4.60396 c 1.42904,-0.0619 6.00882,-0.75969 7.25334,-1.35183 8.67787,-4.12929 22.70594,-15.52521 22.70594,-30.11833 0,-17.11762 -13.31329,-30.99726 -29.73745,-30.99726 z"
       id="path3631"
       sodipodi:nodetypes="csscccccccssc"
       inkscape:export-filename="D:\Repos\ruby\gubby\gubby_gosu\test\asset\bloon.png"
       inkscape:export-xdpi="90"
       inkscape:export-ydpi="90" />
    <path
       style="fill:none;stroke:#000104;stroke-width:0.52499998;stroke-linecap:butt;stroke-linejoin:miter;stroke-miterlimit:4;stroke-opacity:1;stroke-dasharray:none;stroke-dashoffset:0"
       d="m 96.94755,828.9755 c -16.42417,0 -29.73746,13.87964 -29.73746,30.99726 0,14.45127 10.82544,24.75703 22.32507,30.03038 1.38021,0.63294 4.08099,1.33403 5.6545,1.41053 l -3.18929,4.26916 2.24979,-1.58688 1.57739,1.41147 1.59295,-1.20999 2.63263,1.74945 -3.32741,-4.60396 c 1.42904,-0.0619 6.00882,-0.75969 7.25334,-1.35183 8.67787,-4.12929 22.70594,-15.52521 22.70594,-30.11833 0,-17.11762 -13.31329,-30.99726 -29.73745,-30.99726 z"
       id="path3633"
       sodipodi:nodetypes="csscccccccssc"
       inkscape:export-filename="D:\Repos\ruby\gubby\gubby_gosu\test\asset\bloon.png"
       inkscape:export-xdpi="90"
       inkscape:export-ydpi="90" />
    <path
       style="fill:none;stroke:#000104;stroke-width:0.52499998;stroke-linecap:butt;stroke-linejoin:miter;stroke-miterlimit:4;stroke-opacity:1;stroke-dasharray:none;stroke-dashoffset:0"
       d="m 31.94764,828.9755 c -16.42417,0 -29.73746,13.87964 -29.73746,30.99726 0,14.45127 10.82544,24.75703 22.32507,30.03038 1.38021,0.63294 4.08099,1.33403 5.6545,1.41053 l -3.18929,4.26916 2.24979,-1.58688 1.57739,1.41147 1.59295,-1.20999 2.63263,1.74945 -3.32741,-4.60396 c 1.42904,-0.0619 6.00882,-0.75969 7.25334,-1.35183 8.67787,-4.12929 22.70594,-15.52521 22.70594,-30.11833 0,-17.11762 -13.31329,-30.99726 -29.73745,-30.99726 z"
       id="path3635"
       sodipodi:nodetypes="csscccccccssc"
       inkscape:export-filename="D:\Repos\ruby\gubby\gubby_gosu\test\asset\bloon.png"
       inkscape:export-xdpi="90"
       inkscape:export-ydpi="90" />
    <path
       style="fill:none;stroke:#000104;stroke-width:0.52499998;stroke-linecap:butt;stroke-linejoin:miter;stroke-miterlimit:4;stroke-opacity:1;stroke-dasharray:none;stroke-dashoffset:0"
       d="m 226.94737,753.37912 c -16.42417,0 -29.73746,13.87964 -29.73746,30.99726 0,14.45127 10.82544,24.75703 22.32507,30.03038 1.38021,0.63294 4.08099,1.33403 5.6545,1.41053 l -3.18929,4.26916 2.24979,-1.58688 1.57739,1.41147 1.59295,-1.20999 2.63263,1.74945 -3.32741,-4.60396 c 1.42904,-0.0619 6.00882,-0.75969 7.25334,-1.35183 8.67787,-4.12929 22.70594,-15.52521 22.70594,-30.11833 0,-17.11762 -13.31329,-30.99726 -29.73745,-30.99726 z"
       id="path3637"
       sodipodi:nodetypes="csscccccccssc"
       inkscape:export-filename="D:\Repos\ruby\gubby\gubby_gosu\test\asset\bloon.png"
       inkscape:export-xdpi="90"
       inkscape:export-ydpi="90" />
    <path
       style="fill:none;stroke:#000104;stroke-width:0.52499998;stroke-linecap:butt;stroke-linejoin:miter;stroke-miterlimit:4;stroke-opacity:1;stroke-dasharray:none;stroke-dashoffset:0"
       d="m 31.94764,904.57188 c -16.42417,0 -29.73746,13.87964 -29.73746,30.99726 0,14.45127 10.82544,24.75703 22.32507,30.03038 1.38021,0.63294 4.08099,1.33403 5.6545,1.41053 l -3.18929,4.26916 2.24979,-1.58688 1.57739,1.41147 1.59295,-1.20999 2.63263,1.74945 -3.32741,-4.60396 c 1.42904,-0.0619 6.00882,-0.75969 7.25334,-1.35183 8.67787,-4.12929 22.70594,-15.52521 22.70594,-30.11833 0,-17.11762 -13.31329,-30.99726 -29.73745,-30.99726 z"
       id="path3639"
       sodipodi:nodetypes="csscccccccssc"
       inkscape:export-filename="D:\Repos\ruby\gubby\gubby_gosu\test\asset\bloon.png"
       inkscape:export-xdpi="90"
       inkscape:export-ydpi="90" />
    <path
       style="fill:none;stroke:#000104;stroke-width:0.52499998;stroke-linecap:butt;stroke-linejoin:miter;stroke-miterlimit:4;stroke-opacity:1;stroke-dasharray:none;stroke-dashoffset:0"
       d="m 226.94737,828.9755 c -16.42417,0 -29.73746,13.87964 -29.73746,30.99726 0,14.45127 10.82544,24.75703 22.32507,30.03038 1.38021,0.63294 4.08099,1.33403 5.6545,1.41053 l -3.18929,4.26916 2.24979,-1.58688 1.57739,1.41147 1.59295,-1.20999 2.63263,1.74945 -3.32741,-4.60396 c 1.42904,-0.0619 6.00882,-0.75969 7.25334,-1.35183 8.67787,-4.12929 22.70594,-15.52521 22.70594,-30.11833 0,-17.11762 -13.31329,-30.99726 -29.73745,-30.99726 z"
       id="path3641"
       sodipodi:nodetypes="csscccccccssc"
       inkscape:export-filename="D:\Repos\ruby\gubby\gubby_gosu\test\asset\bloon.png"
       inkscape:export-xdpi="90"
       inkscape:export-ydpi="90" />
    <path
       style="fill:none;stroke:#000104;stroke-width:0.52499998;stroke-linecap:butt;stroke-linejoin:miter;stroke-miterlimit:4;stroke-opacity:1;stroke-dasharray:none;stroke-dashoffset:0"
       d="m 96.94755,904.57188 c -16.42417,0 -29.73746,13.87964 -29.73746,30.99726 0,14.45127 10.82544,24.75703 22.32507,30.03038 1.38021,0.63294 4.08099,1.33403 5.6545,1.41053 l -3.18929,4.26916 2.24979,-1.58688 1.57739,1.41147 1.59295,-1.20999 2.63263,1.74945 -3.32741,-4.60396 c 1.42904,-0.0619 6.00882,-0.75969 7.25334,-1.35183 8.67787,-4.12929 22.70594,-15.52521 22.70594,-30.11833 0,-17.11762 -13.31329,-30.99726 -29.73745,-30.99726 z"
       id="path3643"
       sodipodi:nodetypes="csscccccccssc"
       inkscape:export-filename="D:\Repos\ruby\gubby\gubby_gosu\test\asset\bloon.png"
       inkscape:export-xdpi="90"
       inkscape:export-ydpi="90" />
    <path
       style="fill:none;stroke:#000104;stroke-width:0.52499998;stroke-linecap:butt;stroke-linejoin:miter;stroke-miterlimit:4;stroke-opacity:1;stroke-dasharray:none;stroke-dashoffset:0"
       d="m 161.94746,904.57188 c -16.42417,0 -29.73746,13.87964 -29.73746,30.99726 0,14.45127 10.82544,24.75703 22.32507,30.03038 1.38021,0.63294 4.08099,1.33403 5.6545,1.41053 l -3.18929,4.26916 2.24979,-1.58688 1.57739,1.41147 1.59295,-1.20999 2.63263,1.74945 -3.32741,-4.60396 c 1.42904,-0.0619 6.00882,-0.75969 7.25334,-1.35183 8.67787,-4.12929 22.70594,-15.52521 22.70594,-30.11833 0,-17.11762 -13.31329,-30.99726 -29.73745,-30.99726 z"
       id="path3645"
       sodipodi:nodetypes="csscccccccssc"
       inkscape:export-filename="D:\Repos\ruby\gubby\gubby_gosu\test\asset\bloon.png"
       inkscape:export-xdpi="90"
       inkscape:export-ydpi="90" />
    <path
       style="fill:none;stroke:#000104;stroke-width:0.52499998;stroke-linecap:butt;stroke-linejoin:miter;stroke-miterlimit:4;stroke-opacity:1;stroke-dasharray:none;stroke-dashoffset:0"
       d="m 226.94737,904.57188 c -16.42417,0 -29.73746,13.87964 -29.73746,30.99726 0,14.45127 10.82544,24.75703 22.32507,30.03038 1.38021,0.63294 4.08099,1.33403 5.6545,1.41053 l -3.18929,4.26916 2.24979,-1.58688 1.57739,1.41147 1.59295,-1.20999 2.63263,1.74945 -3.32741,-4.60396 c 1.42904,-0.0619 6.00882,-0.75969 7.25334,-1.35183 8.67787,-4.12929 22.70594,-15.52521 22.70594,-30.11833 0,-17.11762 -13.31329,-30.99726 -29.73745,-30.99726 z"
       id="path3647"
       sodipodi:nodetypes="csscccccccssc"
       inkscape:export-filename="D:\Repos\ruby\gubby\gubby_gosu\test\asset\bloon.png"
       inkscape:export-xdpi="90"
       inkscape:export-ydpi="90" />
    <path
       inkscape:export-ydpi="90"
       inkscape:export-xdpi="90"
       inkscape:export-filename="D:\Repos\ruby\gubby\gubby_gosu\test\asset\bloon.png"
       sodipodi:nodetypes="csscccccccssc"
       id="path3596"
       d="m 31.94764,980.16829 c -16.42417,0 -29.73746,13.87961 -29.73746,30.99731 0,14.4512 10.82544,24.7569 22.32507,30.0303 1.38021,0.6329 4.08099,1.334 5.6545,1.4105 l -3.18929,4.2692 2.24979,-1.5869 1.57739,1.4114 1.59295,-1.2099 2.63263,1.7494 -3.32741,-4.604 c 1.42904,-0.062 6.00882,-0.7596 7.25334,-1.3518 8.67787,-4.1293 22.70594,-15.5252 22.70594,-30.1182 0,-17.1177 -13.31329,-30.99731 -29.73745,-30.99731 z"
       style="fill:none;stroke:#000104;stroke-width:0.52499998;stroke-linecap:butt;stroke-linejoin:miter;stroke-miterlimit:4;stroke-opacity:1;stroke-dasharray:none;stroke-dashoffset:0" />
    <path
       style="fill:none;stroke:#000000;stroke-width:0.53220755;stroke-linecap:butt;stroke-linejoin:miter;stroke-miterlimit:4;stroke-opacity:1;stroke-dashoffset:0"
       d="m 95.21946,1010.3996 c -15.96777,-6.7873 -28.61286,-8.5004 -28.61286,8.8489 0,14.647 10.97198,-4.0932 22.62728,1.2515 1.39889,0.6415 4.13624,1.352 5.73105,1.4295 l -3.23247,4.327 2.28025,-1.6083 1.59875,1.4306 1.61451,-1.2265 2.66826,1.7732 -3.37246,-4.6662 c 1.44839,-0.063 6.09017,-0.77 7.35154,-1.3703 8.79534,-4.1851 24.20108,8.5294 24.20108,-6.2613 0,-17.3493 -16.20844,-3.9281 -32.85493,-3.9281 z"
       id="path2816"
       sodipodi:nodetypes="csscccccccssc"
       inkscape:export-filename="D:\Repos\ruby\gubby\gubby_gosu\test\asset\popped.png"
       inkscape:export-xdpi="90"
       inkscape:export-ydpi="90" />
    <text
       xml:space="preserve"
       style="font-size:18px;font-style:normal;font-weight:normal;fill:#000000;fill-opacity:1;stroke:none;font-family:Arial;-inkscape-font-specification:Arial"
       x="70.250771"
       y="793.36157"
       id="text3665"><tspan
         sodipodi:role="line"
         id="tspan3667"
         x="70.250771"
         y="793.36157">BOMB</tspan></text>
    <text
       xml:space="preserve"
       style="font-size:18px;font-style:normal;font-weight:normal;fill:#000000;fill-opacity:1;stroke:none;font-family:Arial;-inkscape-font-specification:Arial"
       x="135.16718"
       y="793.35718"
       id="text3669"><tspan
         sodipodi:role="line"
         x="135.16718"
         y="793.35718"
         id="tspan3673">+TIME</tspan></text>
    <text
       xml:space="preserve"
       style="font-size:18px;font-style:normal;font-weight:normal;fill:#000000;fill-opacity:1;stroke:none;font-family:Arial;-inkscape-font-specification:Arial"
       x="200.13194"
       y="793.36157"
       id="text3677"><tspan
         sodipodi:role="line"
         x="200.13194"
         y="793.36157"
         id="tspan3721">SLOW</tspan></text>
    <text
       xml:space="preserve"
       style="font-size:18px;font-style:normal;font-weight:normal;fill:#000000;fill-opacity:1;stroke:none;font-family:Arial;-inkscape-font-specification:Arial"
       x="6.252811"
       y="868.95355"
       id="text3685"><tspan
         sodipodi:role="line"
         id="tspan3687"
         x="6.252811"
         y="868.95355">ANVIL</tspan></text>
    <text
       xml:space="preserve"
       style="font-size:18px;font-style:normal;font-weight:normal;fill:#000000;fill-opacity:1;stroke:none;font-family:Arial;-inkscape-font-specification:Arial"
       x="64.740028"
       y="868.95795"
       id="text3689"><tspan
         sodipodi:role="line"
         id="tspan3691"
         x="64.740028"
         y="868.95795">BONUS</tspan></text>
    <text
       xml:space="preserve"
       style="font-size:18px;font-style:normal;font-weight:normal;fill:#000000;fill-opacity:1;stroke:none;font-family:Arial;-inkscape-font-specification:Arial"
       x="131.81854"
       y="868.95355"
       id="text3693"><tspan
         sodipodi:role="line"
         id="tspan3695"
         x="131.81854"
         y="868.95355">BEEFY</tspan></text>
    <text
       xml:space="preserve"
       style="font-size:18px;font-style:normal;font-weight:normal;fill:#000000;fill-opacity:1;stroke:none;font-family:Arial;-inkscape-font-specification:Arial"
       x="201.30089"
       y="868.84369"
       id="text3697"><tspan
         sodipodi:role="line"
         id="tspan3699"
         x="201.30089"
         y="868.84369">PUNY</tspan></text>
    <text
       xml:space="preserve"
       style="font-size:18px;font-style:normal;font-weight:normal;fill:#000000;fill-opacity:1;stroke:none;font-family:Arial;-inkscape-font-specification:Arial"
       x="0.75525218"
       y="944.54993"
       id="text3701"><tspan
         sodipodi:role="line"
         id="tspan3703"
         x="0.75525218"
         y="944.54993">HEAVY</tspan></text>
    <text
       xml:space="preserve"
       style="font-size:18px;font-style:normal;font-weight:normal;fill:#000000;fill-opacity:1;stroke:none;font-family:Arial;-inkscape-font-specification:Arial"
       x="72.197548"
       y="944.55432"
       id="text3705"><tspan
         sodipodi:role="line"
         id="tspan3707"
         x="72.197548"
         y="944.55432">HOLE</tspan></text>
    <text
       xml:space="preserve"
       style="font-size:18px;font-style:normal;font-weight:normal;fill:#000000;fill-opacity:1;stroke:none;font-family:Arial;-inkscape-font-specification:Arial"
       x="136.92499"
       y="944.55432"
       id="text3709"><tspan
         sodipodi:role="line"
         id="tspan3711"
         x="136.92499"
         y="944.55432">TOOT</tspan></text>
    <text
       xml:space="preserve"
       style="font-size:18px;font-style:normal;font-weight:normal;fill:#000000;fill-opacity:1;stroke:none;font-family:Arial;-inkscape-font-specification:Arial"
       x="200.84386"
       y="944.54993"
       id="text3713"><tspan
         sodipodi:role="line"
         id="tspan3715"
         x="200.84386"
         y="944.54993">KITTY</tspan></text>
    <text
       xml:space="preserve"
       style="font-size:18px;font-style:normal;font-weight:normal;fill:#000000;fill-opacity:1;stroke:none;font-family:Arial;-inkscape-font-specification:Arial"
       x="4.9564242"
       y="1020.1463"
       id="text3717"><tspan
         sodipodi:role="line"
         id="tspan3719"
         x="4.9564242"
         y="1020.1463">WTHR</tspan></text>
  </g>
</svg>
